<svg
  xmlns="http://www.w3.org/2000/svg"
  viewBox="0 0 64 64"
  fill="none"
>
  <defs>
    <linearGradient id="tile" x1="8" y1="6" x2="58" y2="58" gradientUnits="userSpaceOnUse">
      <stop stop-color="#13253B" />
      <stop offset="0.55" stop-color="#0F172A" />
      <stop offset="1" stop-color="#08111C" />
    </linearGradient>
    <radialGradient
      id="glow"
      cx="0"
      cy="0"
      r="1"
      gradientUnits="userSpaceOnUse"
      gradientTransform="translate(46 14) rotate(139) scale(31 28)"
    >
      <stop stop-color="#6EE7B7" stop-opacity="0.95" />
      <stop offset="1" stop-color="#6EE7B7" stop-opacity="0" />
    </radialGradient>
    <linearGradient id="ring" x1="12" y1="16" x2="50" y2="48" gradientUnits="userSpaceOnUse">
      <stop stop-color="#A7F3D0" stop-opacity="0.25" />
      <stop offset="0.55" stop-color="#34D399" stop-opacity="0.85" />
      <stop offset="1" stop-color="#ECFDF5" stop-opacity="0.28" />
    </linearGradient>
    <linearGradient id="sweep" x1="14" y1="24" x2="51" y2="35" gradientUnits="userSpaceOnUse">
      <stop stop-color="#34D399" stop-opacity="0.18" />
      <stop offset="0.55" stop-color="#A7F3D0" stop-opacity="0.95" />
      <stop offset="1" stop-color="#F8FAFC" stop-opacity="0.22" />
    </linearGradient>
    <linearGradient id="edge" x1="10" y1="8" x2="58" y2="58" gradientUnits="userSpaceOnUse">
      <stop stop-color="#86EFAC" stop-opacity="0.55" />
      <stop offset="1" stop-color="#F8FAFC" stop-opacity="0.1" />
    </linearGradient>
  </defs>

  <rect x="4" y="4" width="56" height="56" rx="18" fill="url(#tile)" />
  <rect x="4" y="4" width="56" height="56" rx="18" fill="url(#glow)" />
  <rect x="4.5" y="4.5" width="55" height="55" rx="17.5" stroke="url(#edge)" />

  <circle cx="32" cy="33" r="18.5" stroke="url(#ring)" stroke-width="2.5" />
  <path
    d="M14 35.5C18.2 27.1667 24.2 23 32 23C39.8 23 45.8 27.1667 50 35.5"
    stroke="url(#sweep)"
    stroke-width="3.2"
    stroke-linecap="round"
  />
  <path
    d="M16.5 20.5L24 42L32 28.5L40 42L47.5 20.5"
    stroke="#F8FAFC"
    stroke-width="5"
    stroke-linecap="round"
    stroke-linejoin="round"
  />
  <circle cx="32" cy="15.5" r="5.5" fill="#34D399" />
  <path
    d="M29.5 15.7L31.2 17.5L34.7 13.6"
    stroke="#052E26"
    stroke-width="2.2"
    stroke-linecap="round"
    stroke-linejoin="round"
  />
  <path
    d="M19 47H45"
    stroke="#DCFCE7"
    stroke-opacity="0.28"
    stroke-width="2"
    stroke-linecap="round"
  />
</svg>
